<svg xmlns="http://www.w3.org/2000/svg" id="svg2" width="8" height="8" version="1.1" viewBox="0 0 8 8"><defs id="defs4"><filter id="filter4147" style="color-interpolation-filters:sRGB" width="1.288" height="1.288" x="-.144" y="-.144"><feGaussianBlur id="feGaussianBlur4149" stdDeviation=".36"/></filter></defs><g id="layer1" fill="#fff" transform="translate(0 -1044.4)"><circle id="path4138" cx="4" cy="1048.4" r="2.117"/><path id="circle4142" style="color-rendering:auto;text-decoration-color:#000;color:#000;isolation:auto;mix-blend-mode:normal;shape-rendering:auto;solid-color:#000;block-progression:tb;text-decoration-line:none;text-decoration-style:solid;image-rendering:auto;white-space:normal;text-indent:0;text-transform:none" d="m4 1045.4c-1.645 0-3 1.355-3 3s1.355 3 3 3 3-1.355 3-3-1.355-3-3-3zm0 2c0.56413 0 1 0.4359 1 1 0 0.5642-0.43587 1-1 1s-1-0.4358-1-1c0-0.5641 0.43587-1 1-1z" filter="url(#filter4147)" transform="matrix(1.0584 0 0 1.0584 -.23360 -61.224)"/></g></svg>